<?xml version="1.0" encoding="utf-8"?>
<!-- Generator: Adobe Illustrator 16.2.1, SVG Export Plug-In . SVG Version: 6.00 Build 0)  -->
<!DOCTYPE svg PUBLIC "-//W3C//DTD SVG 1.1//EN" "http://www.w3.org/Graphics/SVG/1.1/DTD/svg11.dtd">
<svg version="1.1" id="Layer_1" xmlns="http://www.w3.org/2000/svg" xmlns:xlink="http://www.w3.org/1999/xlink" x="0px" y="0px"
	 width="60.638px" height="28px" viewBox="0 0 60.638 28" enable-background="new 0 0 60.638 28" xml:space="preserve">
<g>
	<path fill="#59C6F1" d="M19.204,0.014c0-0.012-5.218,0-5.218,0C6.262,0.014,0,6.276,0,14c0,7.724,6.262,13.986,13.986,13.986
		l9.812-0.008c2.465,0,4.463-1.982,4.463-4.447L28.266,15l6.781,10.696C35.964,27.084,37.539,28,39.327,28
		c2.831,0,5.126-2.295,5.126-5.126L44.451,15l6.782,10.696C52.15,27.084,53.724,28,55.512,28c2.831,0,5.126-2.295,5.126-5.126
		L60.637,0.001h-3.49v22.873c0,0.902-0.731,1.635-1.635,1.635c-0.564,0-1.062-0.286-1.355-0.721L42.086,4.775
		c-0.112-0.162-0.299-0.269-0.51-0.269c-0.342,0-0.619,0.277-0.619,0.619l0.004,17.749c0,0.902-0.731,1.635-1.635,1.635
		c-0.564,0-1.062-0.286-1.355-0.721L25.9,4.775c-0.111-0.162-0.298-0.269-0.51-0.269c-0.341,0-0.619,0.277-0.619,0.619L24.77,23.53
		c0,0.537-0.436,0.972-0.972,0.972l-9.812-0.007C8.189,24.495,3.491,19.796,3.491,14c0-5.796,4.699-10.495,10.495-10.495
		l5.218-0.004V0.014z"/>
	<path fill="#59C6F1" d="M19.766,20.012c0.275,0,0.498-0.223,0.498-0.497l0.001-14.389C20.265,2.295,22.56,0,25.391,0
		c1.795,0,3.374,0.922,4.29,2.318l6.758,10.602l0.013-7.794C36.451,2.295,38.746,0,41.577,0c1.795,0,3.374,0.922,4.289,2.318
		l6.759,10.602V0.001h3.513l-0.006,22.873c0,0.342-0.277,0.618-0.619,0.618c-0.202,0-0.382-0.097-0.495-0.247L42.932,4.211
		c-0.294-0.435-0.791-0.721-1.355-0.721c-0.903,0-1.635,0.732-1.635,1.635l0.004,17.749c0,0.342-0.277,0.618-0.619,0.618
		c-0.202,0-0.382-0.097-0.495-0.247L26.747,4.211c-0.294-0.435-0.792-0.721-1.356-0.721c-0.903,0-1.635,0.732-1.635,1.635
		l0.007,17.889c0,0.274-0.223,0.497-0.497,0.497l-9.28-0.002c-5.235,0-9.479-4.275-9.479-9.51c0-5.234,4.244-9.51,9.479-9.51
		c0,0,5.218-0.02,5.218,0c0,0.021,0,3.526,0,3.526l-5.218-0.004c-3.307,0-5.988,2.681-5.988,5.987c0,3.307,2.681,6.019,5.988,6.019
		L19.766,20.012z"/>
</g>
<g>
</g>
<g>
</g>
<g>
</g>
<g>
</g>
<g>
</g>
<g>
</g>
</svg>
