<?xml version="1.0" encoding="utf-8"?>
<!-- Generator: Adobe Illustrator 16.2.1, SVG Export Plug-In . SVG Version: 6.00 Build 0)  -->
<!DOCTYPE svg PUBLIC "-//W3C//DTD SVG 1.1//EN" "http://www.w3.org/Graphics/SVG/1.1/DTD/svg11.dtd">
<svg version="1.1" id="Layer_1" xmlns="http://www.w3.org/2000/svg" xmlns:xlink="http://www.w3.org/1999/xlink" x="0px" y="0px"
	 width="299px" height="43px" viewBox="0 0 299 43" enable-background="new 0 0 299 43" xml:space="preserve">
<g>
	<g>
		<path fill="#FCFCFC" d="M271.746,19.908c0.006,0.001,0.016,0.005,0.021,0.008c-0.001-0.004-0.005-0.008-0.006-0.01
			C271.758,19.904,271.752,19.907,271.746,19.908z"/>
		<polygon fill="#FCFCFC" points="271.768,19.916 271.776,19.926 271.779,19.928 271.78,19.92 		"/>
		<path fill="#FCFCFC" d="M225.189,24.543c0.002-0.191-0.052-0.255-0.249-0.252c-0.736,0.012-1.475-0.009-2.211,0.012
			c-0.281,0.007-0.355-0.062-0.355-0.352c0.01-4.03,0.007-8.061,0.005-12.093c0-0.111-0.012-0.222-0.02-0.333
			c-1.306,0-2.612,0-3.919,0c0.023,0.093-0.059,0.131-0.103,0.183c-3.728,4.322-7.458,8.641-11.187,12.96
			c-0.024,0.027-0.055,0.051-0.083,0.075c0,0.094,0,0.186,0,0.28c0.095,0.044,0.083,0.139,0.102,0.217
			c0.19,0.827,0.391,1.651,0.56,2.483c0.053,0.254,0.149,0.318,0.403,0.318c3.184-0.01,6.364-0.004,9.547-0.013
			c0.26-0.001,0.319,0.073,0.318,0.324c-0.015,1.296-0.002,2.594-0.011,3.891c-0.004,0.222,0.058,0.282,0.279,0.279
			c1.269-0.009,2.538-0.011,3.808,0c0.242,0.003,0.314-0.055,0.313-0.307c-0.014-1.306-0.002-2.612-0.011-3.918
			c-0.002-0.205,0.045-0.272,0.261-0.27c0.765,0.014,1.531,0,2.296,0.009c0.189,0.004,0.258-0.047,0.256-0.247
			C225.182,26.71,225.182,25.626,225.189,24.543z M217.827,24.298c-1.754-0.007-3.509-0.008-5.263-0.011
			c-0.006,0-0.011-0.012-0.045-0.041c1.807-2.115,3.611-4.231,5.473-6.41c0,2.148,0,4.211,0.001,6.272
			C217.993,24.229,217.974,24.298,217.827,24.298z"/>
		<path fill="#FCFCFC" d="M230.481,11.524c-0.071,0.085-0.18,0.085-0.276,0.114c-1.768,0.528-3.534,1.059-5.307,1.578
			c-0.21,0.062-0.279,0.131-0.219,0.363c0.291,1.082,0.563,2.166,0.828,3.253c0.05,0.211,0.132,0.23,0.324,0.181
			c1.003-0.255,2.01-0.496,3.015-0.743c0.362-0.089,0.362-0.09,0.362,0.276c0,5.217,0.002,10.433-0.006,15.648
			c0,0.246,0.052,0.332,0.319,0.33c1.315-0.015,2.632-0.012,3.948-0.003c0.005,0,0.009,0,0.014,0V11.524
			C232.482,11.524,231.482,11.524,230.481,11.524z"/>
		<path fill="#FCFCFC" d="M250.347,19.606c-1.314-2.665-3.45-4.285-6.344-4.886c-2.244-0.464-4.416-0.205-6.474,0.835
			c-1.499,0.759-2.679,1.863-3.553,3.288v9.404c0.368,0.553,0.758,1.089,1.233,1.567c1.379,1.39,3.043,2.208,4.957,2.553
			c0.058,0.011,0.132-0.006,0.179,0.034c0.141,0.023,0.279,0.053,0.42,0.081c0.161-0.003,0.326-0.01,0.488-0.005
			c0.063,0.004,0.127,0.01,0.188,0.017c2.802,0.112,5.243-0.742,7.248-2.745c0.705-0.707,1.258-1.521,1.673-2.423v-7.686
			C250.359,19.628,250.353,19.616,250.347,19.606z M247.277,23.736c0.01,0.282-0.025,0.56-0.085,0.834
			c-0.104,0.933-0.479,1.759-1.04,2.493c-2.414,3.157-7.495,2.542-9.046-1.118c-0.922-2.179-0.725-4.282,0.774-6.158
			c1.081-1.353,2.566-1.914,4.277-1.847c2.636,0.101,4.545,1.996,5.027,4.395c0.016,0.083,0.058,0.169,0.013,0.25
			c0.017,0.068,0.026,0.139,0.036,0.21c0.089,0.127,0.036,0.285,0.048,0.428C247.299,23.393,247.28,23.564,247.277,23.736z"/>
		<path fill="#FCFCFC" d="M266.946,28.133c-0.039-0.002-0.079-0.003-0.116-0.007c-0.066-0.001-0.137-0.005-0.182,0.002
			c-0.043,0.007-0.085,0.009-0.124,0.009c-0.44,0-0.525-0.395-0.552-0.524c-0.17-0.809-0.363-1.628-0.551-2.421l-0.051-0.215
			c-0.039-0.171-0.06-0.396,0.148-0.625c0.189-0.213,0.378-0.432,0.561-0.645c0.176-0.204,0.358-0.416,0.543-0.62
			c0.032-0.039,0.058-0.075,0.072-0.113l0.019-0.046l0.034-0.035c0.062-0.062,0.118-0.128,0.17-0.197l0.063-0.084l0.056-0.006
			c0.002-0.006,0.007-0.009,0.011-0.015c-0.005-2.522-0.007-5.045,0.001-7.568c0-0.206-0.062-0.24-0.25-0.238
			c-1.129,0.007-2.527,0.001-3.656,0c-0.067,0.112-0.041,0.236-0.041,0.355c-0.001,3.396,0,6.792-0.003,10.186
			c0,0.102,0.041,0.217-0.065,0.329c-0.08-0.101-0.15-0.184-0.219-0.27c-0.881-1.157-1.763-2.313-2.642-3.471
			c-1.806-2.374-3.611-4.75-5.418-7.125c-1.07,0-2.749-0.002-3.897-0.003v17.448c1.125,0,2.78-0.008,3.828,0.005
			c0.243,0.004,0.314-0.055,0.312-0.306c-0.01-2.314-0.006-4.627-0.006-6.941c0.001-1.298-0.007-2.593-0.004-3.888
			c-0.023-0.031-0.04-0.068,0.012-0.076c0.019-0.003,0.045,0.04,0.066,0.064c0.046,0.06,0.09,0.118,0.136,0.179
			c0.05,0.056,7.875,10.942,8.025,10.941c0.922-0.007,2.659-0.005,3.582,0c0.162,0,0.234-0.039,0.231-0.219
			c-0.007-1.289-0.009-2.578-0.012-3.867l-0.076,0.005H266.946z"/>
		<path fill="#FCFCFC" d="M283.058,24.469c-0.303,0.007-0.623,0.008-1.007,0.008c-0.31,0-0.62-0.001-0.931-0.005h-0.157
			c-0.048,0-0.088,0.002-0.124,0.004c-0.03,0-0.057,0-0.081,0c-0.072,0-0.21,0-0.312-0.103c-0.104-0.107-0.103-0.239-0.102-0.422
			v-0.108v-1.027c-0.001-3.544-0.001-7.21,0.005-10.817c0-0.026,0-0.045-0.001-0.06c-0.012-0.001-0.025-0.001-0.046-0.001h-0.015
			c-0.958,0.011-1.96,0.013-3.225,0.001l0,0c-0.138,0-0.201,0.029-0.287,0.13c-3.115,3.617-6.191,7.178-9.331,10.81
			c-0.002,0.004-0.006,0.009-0.009,0.014c-0.025,0.038-0.079,0.116-0.174,0.162c-0.041,0.051-0.085,0.102-0.131,0.148
			c-0.035,0.076-0.083,0.146-0.142,0.213c-0.183,0.2-0.362,0.41-0.535,0.612c-0.185,0.215-0.375,0.438-0.568,0.652
			c-0.046,0.05-0.061,0.076-0.035,0.183l0.051,0.215c0.188,0.795,0.382,1.619,0.553,2.433c0.019,0.095,0.038,0.125,0.044,0.133
			c0,0,0.009,0.002,0.025,0.002c0.016,0,0.032-0.003,0.052-0.005c0.081-0.012,0.182-0.012,0.277-0.005
			c0.031,0,0.061,0.003,0.089,0.003l0.173-0.01l1.718,0.002c2.394,0.003,4.791,0.003,7.185-0.002c0.129,0,0.287,0.017,0.401,0.131
			c0.114,0.116,0.128,0.272,0.127,0.398c-0.004,0.636-0.004,1.283-0.004,1.91c0,0.631,0,1.283-0.005,1.924c0,0.03,0,0.051,0,0.066
			c0.01,0,0.021,0.001,0.037,0.001h0.012c0.584-0.008,1.198-0.012,1.829-0.012c0.598,0,1.211,0.004,1.871,0.011h0.015
			c0.021,0,0.036-0.002,0.049-0.002c0-0.014,0.001-0.031,0.001-0.055c-0.006-0.675-0.006-1.358-0.004-2.02
			c0-0.596,0.002-1.212-0.003-1.817c-0.002-0.127,0.01-0.284,0.13-0.404c0.113-0.117,0.271-0.132,0.392-0.132h0.029
			c0.313,0.007,0.625,0.007,0.862,0.007h0.738c0.202,0,0.402,0,0.604,0.003c-0.006-0.864-0.012-2.001,0-3.151
			c0-0.007,0-0.012,0-0.019c-0.006,0-0.014,0-0.023,0H283.058z M278.452,19.794c-0.662,0.177-1.171,0.602-1.666,1.045
			c-0.115,0.102-0.052,0.205-0.018,0.307c0.228,0.691,0.461,1.38,0.689,2.069c0.023,0.069,0.045,0.139,0.063,0.203
			c-0.081,0.059-0.115-0.012-0.152-0.037c-0.582-0.421-1.241-0.674-1.913-0.906c-0.17-0.059-0.239,0.026-0.327,0.126
			c-0.478,0.536-0.959,1.07-1.5,1.543c-0.167,0.144-0.325,0.3-0.574,0.408c0.159-0.503,0.311-0.972,0.459-1.438
			c0.097-0.312,0.182-0.628,0.293-0.934c0.077-0.209,0.056-0.321-0.163-0.439c-0.735-0.396-1.312-0.978-1.798-1.65
			c-0.035-0.048-0.099-0.089-0.066-0.162c-0.002-0.001-0.002-0.001-0.003-0.002c-0.002-0.004-0.005-0.007-0.009-0.01
			c-0.006-0.003-0.016-0.007-0.021-0.008c0.006-0.001,0.012-0.004,0.016-0.002c0.001,0.002,0.005,0.006,0.006,0.01
			c0.004,0.001,0.009,0.003,0.013,0.004c-0.001,0.003-0.001,0.005-0.001,0.008c0.748,0.456,1.54,0.49,2.367,0.257
			c0.204-0.058,0.311-0.149,0.367-0.354c0.241-0.88,0.501-1.754,0.758-2.653c0.113,0.087,0.126,0.204,0.164,0.302
			c0.213,0.567,0.432,1.133,0.626,1.707c0.071,0.212,0.159,0.234,0.359,0.172c0.818-0.254,1.617-0.253,2.358,0.254
			c0.029,0.021,0.057,0.046,0.122,0.098C278.729,19.741,278.588,19.758,278.452,19.794z"/>
		<path fill="#FCFCFC" d="M291.819,21.926c0-3.343-0.004-6.683,0.003-10.022c0-0.217-0.051-0.284-0.274-0.28
			c-0.885,0.013-1.772,0.006-2.659,0.005c-0.12,0-0.238,0.017-0.355,0.052c-1.813,0.543-3.627,1.086-5.44,1.622
			c-0.178,0.051-0.237,0.1-0.185,0.301c0.286,1.072,0.557,2.148,0.817,3.225c0.053,0.215,0.136,0.23,0.325,0.182
			c0.984-0.25,1.974-0.49,2.96-0.731c0.347-0.085,0.349-0.084,0.349,0.264c0,5.124,0.002,10.245-0.007,15.369
			c0,0.234,0.043,0.32,0.303,0.318c1.288-0.016,2.575-0.016,3.863,0c0.251,0.002,0.307-0.067,0.306-0.312
			C291.815,28.587,291.819,25.256,291.819,21.926z"/>
	</g>
	<g>
		<path fill="#FCFCFC" d="M14.659,24.427c-0.091-1.714-0.2-3.774-0.182-5.306h-0.055c-0.419,1.44-0.93,2.972-1.55,4.668l-2.17,5.962
			H9.499l-1.987-5.853c-0.583-1.732-1.076-3.319-1.422-4.777H6.052c-0.037,1.531-0.127,3.592-0.237,5.434l-0.329,5.27H3.974
			l0.857-12.29h2.024l2.097,5.944c0.51,1.514,0.93,2.863,1.24,4.14h0.055c0.31-1.24,0.748-2.59,1.295-4.14l2.188-5.944h2.024
			l0.766,12.29h-1.55L14.659,24.427z"/>
		<path fill="#FCFCFC" d="M22.587,25.959l-1.276,3.865H19.67l4.175-12.29h1.915l4.194,12.29h-1.696l-1.312-3.865H22.587z
			 M26.617,24.719l-1.204-3.537c-0.273-0.803-0.456-1.532-0.638-2.243h-0.037c-0.182,0.729-0.383,1.477-0.62,2.225l-1.203,3.556
			H26.617z"/>
		<path fill="#FCFCFC" d="M33.58,17.698c0.802-0.164,1.951-0.255,3.045-0.255c1.695,0,2.79,0.31,3.556,1.003
			c0.62,0.547,0.966,1.386,0.966,2.334c0,1.623-1.021,2.698-2.316,3.136v0.055c0.948,0.328,1.514,1.204,1.805,2.48
			c0.401,1.714,0.693,2.899,0.948,3.373h-1.641c-0.201-0.347-0.474-1.404-0.82-2.936c-0.365-1.696-1.021-2.334-2.462-2.389h-1.495
			v5.324H33.58V17.698z M35.166,23.296h1.623c1.696,0,2.771-0.93,2.771-2.334c0-1.586-1.149-2.279-2.826-2.297
			c-0.766,0-1.313,0.073-1.568,0.146V23.296z"/>
		<path fill="#FCFCFC" d="M47.746,29.824v-5.215l-3.884-7.075h1.806l1.732,3.392c0.474,0.93,0.839,1.678,1.222,2.535h0.037
			c0.346-0.803,0.766-1.605,1.24-2.535l1.769-3.392h1.805l-4.121,7.057v5.233H47.746z"/>
		<path fill="#FCFCFC" d="M62.384,17.534h1.586v5.927h0.055c0.328-0.475,0.656-0.912,0.966-1.313l3.756-4.613h1.969l-4.449,5.215
			l4.796,7.075h-1.878l-4.048-6.035l-1.167,1.349v4.687h-1.586V17.534z"/>
		<path fill="#FCFCFC" d="M76.257,25.959l-1.276,3.865H73.34l4.175-12.29h1.915l4.194,12.29h-1.696l-1.312-3.865H76.257z
			 M80.287,24.719l-1.204-3.537c-0.273-0.803-0.456-1.532-0.638-2.243h-0.037c-0.182,0.729-0.383,1.477-0.62,2.225l-1.203,3.556
			H80.287z"/>
		<path fill="#FCFCFC" d="M88.18,18.884h-3.738v-1.35h9.099v1.35h-3.756v10.94H88.18V18.884z"/>
		<path fill="#FCFCFC" d="M103.093,24.062h-4.777v4.431h5.324v1.331h-6.911v-12.29h6.637v1.331h-5.051v3.884h4.777V24.062z"/>
		<path fill="#FCFCFC" d="M121.798,29.423c-0.583,0.292-1.75,0.584-3.246,0.584c-3.464,0-6.072-2.188-6.072-6.218
			c0-3.848,2.608-6.455,6.418-6.455c1.532,0,2.498,0.328,2.917,0.547l-0.383,1.295c-0.602-0.292-1.458-0.511-2.48-0.511
			c-2.881,0-4.795,1.842-4.795,5.069c0,3.008,1.732,4.941,4.723,4.941c0.966,0,1.951-0.201,2.589-0.511L121.798,29.423z"/>
		<path fill="#FCFCFC" d="M127.667,25.959l-1.276,3.865h-1.641l4.175-12.29h1.915l4.194,12.29h-1.696l-1.312-3.865H127.667z
			 M131.696,24.719l-1.204-3.537c-0.273-0.803-0.456-1.532-0.638-2.243h-0.037c-0.182,0.729-0.383,1.477-0.62,2.225l-1.203,3.556
			H131.696z"/>
		<path fill="#FCFCFC" d="M138.659,17.698c0.802-0.164,1.951-0.255,3.045-0.255c1.696,0,2.79,0.31,3.556,1.003
			c0.62,0.547,0.966,1.386,0.966,2.334c0,1.623-1.021,2.698-2.316,3.136v0.055c0.948,0.328,1.514,1.204,1.805,2.48
			c0.401,1.714,0.693,2.899,0.948,3.373h-1.641c-0.201-0.347-0.474-1.404-0.82-2.936c-0.365-1.696-1.021-2.334-2.462-2.389h-1.495
			v5.324h-1.586V17.698z M140.246,23.296h1.623c1.696,0,2.771-0.93,2.771-2.334c0-1.586-1.149-2.279-2.826-2.297
			c-0.766,0-1.313,0.073-1.568,0.146V23.296z"/>
		<path fill="#FCFCFC" d="M152.825,29.824v-5.215l-3.884-7.075h1.805l1.732,3.392c0.475,0.93,0.839,1.678,1.222,2.535h0.036
			c0.347-0.803,0.767-1.605,1.24-2.535l1.769-3.392h1.806l-4.121,7.057v5.233H152.825z"/>
	</g>
	<rect x="187.651" y="5.733" fill="#FCFCFC" width="1.362" height="30.707"/>
</g>
<g>
</g>
<g>
</g>
<g>
</g>
<g>
</g>
<g>
</g>
<g>
</g>
</svg>
