<?xml version="1.0" encoding="utf-8"?>
<!-- Generator: Adobe Illustrator 16.2.1, SVG Export Plug-In . SVG Version: 6.00 Build 0)  -->
<!DOCTYPE svg PUBLIC "-//W3C//DTD SVG 1.1//EN" "http://www.w3.org/Graphics/SVG/1.1/DTD/svg11.dtd">
<svg version="1.1" id="Layer_1" xmlns="http://www.w3.org/2000/svg" xmlns:xlink="http://www.w3.org/1999/xlink" x="0px" y="0px"
	 width="299px" height="43px" viewBox="0 0 299 43" enable-background="new 0 0 299 43" xml:space="preserve">
<g>
	<g>
		<g>
			<path fill="#F2F5F7" d="M277.828,20.312c0.007,0.003,0.014,0.005,0.02,0.007c-0.003-0.003-0.004-0.007-0.006-0.009
				C277.839,20.309,277.833,20.311,277.828,20.312z"/>
			<path fill="#F2F5F7" d="M277.848,20.319c0.003,0.003,0.005,0.005,0.007,0.009c0.001,0.001,0.001,0.001,0.001,0.001
				c0.002-0.002,0.002-0.005,0.003-0.006C277.854,20.322,277.852,20.322,277.848,20.319z"/>
			<path fill="#F2F5F7" d="M234.164,24.661c0.002-0.183-0.048-0.239-0.233-0.236c-0.693,0.01-1.383-0.01-2.074,0.01
				c-0.264,0.007-0.334-0.06-0.334-0.328c0.01-3.782,0.007-7.563,0.006-11.344c0-0.104-0.012-0.208-0.02-0.312
				c-1.225,0-2.45,0-3.677,0c0.023,0.085-0.052,0.122-0.096,0.17c-3.496,4.054-6.994,8.105-10.49,12.156
				c-0.022,0.026-0.052,0.047-0.077,0.07c0,0.087,0,0.175,0,0.264c0.087,0.04,0.077,0.13,0.094,0.203
				c0.18,0.774,0.367,1.547,0.526,2.328c0.049,0.238,0.139,0.297,0.377,0.297c2.985-0.008,5.969-0.002,8.954-0.011
				c0.244,0,0.3,0.069,0.299,0.305c-0.011,1.217-0.001,2.432-0.01,3.65c-0.001,0.206,0.054,0.263,0.261,0.262
				c1.189-0.01,2.381-0.011,3.572,0c0.227,0.003,0.295-0.052,0.293-0.289c-0.013-1.225-0.001-2.45-0.009-3.675
				c-0.003-0.192,0.043-0.255,0.244-0.252c0.718,0.011,1.435-0.001,2.154,0.008c0.177,0.002,0.241-0.044,0.239-0.232
				C234.155,26.691,234.155,25.673,234.164,24.661z M227.259,24.429c-1.646-0.004-3.291-0.007-4.937-0.01
				c-0.005,0-0.011-0.01-0.044-0.038c1.694-1.984,3.387-3.969,5.134-6.013c0,2.015,0,3.949,0.003,5.883
				C227.415,24.363,227.395,24.43,227.259,24.429z"/>
			<path fill="#F2F5F7" d="M239.127,12.45c-0.067,0.079-0.168,0.08-0.258,0.106c-1.659,0.497-3.317,0.993-4.978,1.481
				c-0.197,0.058-0.263,0.122-0.206,0.341c0.271,1.014,0.528,2.031,0.776,3.051c0.048,0.198,0.124,0.215,0.304,0.169
				c0.94-0.239,1.885-0.465,2.828-0.697c0.341-0.083,0.341-0.085,0.341,0.259c0,4.893,0.002,9.785-0.007,14.677
				c0,0.231,0.048,0.312,0.301,0.31c1.233-0.015,2.467-0.012,3.7-0.001c0.005,0,0.011,0,0.015,0V12.45
				C241.004,12.45,240.064,12.45,239.127,12.45z"/>
			<path fill="#F2F5F7" d="M257.756,20.029c-1.231-2.498-3.234-4.018-5.947-4.582c-2.104-0.435-4.143-0.193-6.073,0.783
				c-1.406,0.712-2.511,1.747-3.331,3.082v8.819c0.347,0.521,0.712,1.023,1.156,1.473c1.294,1.302,2.854,2.07,4.649,2.395
				c0.057,0.009,0.123-0.01,0.167,0.033c0.134,0.021,0.264,0.047,0.396,0.075c0.152-0.005,0.306-0.011,0.459-0.006
				c0.059,0.001,0.117,0.009,0.175,0.015c2.629,0.107,4.919-0.694,6.798-2.575c0.662-0.662,1.179-1.426,1.57-2.271v-7.208
				C257.77,20.051,257.763,20.039,257.756,20.029z M254.878,23.903c0.011,0.265-0.022,0.525-0.079,0.782
				c-0.099,0.873-0.448,1.648-0.976,2.337c-2.264,2.962-7.029,2.386-8.484-1.048c-0.864-2.043-0.679-4.018,0.727-5.777
				c1.014-1.268,2.407-1.793,4.013-1.732c2.473,0.095,4.262,1.872,4.714,4.123c0.018,0.078,0.056,0.158,0.011,0.233
				c0.016,0.064,0.027,0.132,0.034,0.196c0.085,0.121,0.035,0.27,0.048,0.401C254.897,23.58,254.881,23.742,254.878,23.903z"/>
			<path fill="#F2F5F7" d="M273.325,28.026c-0.036-0.002-0.072-0.004-0.108-0.006c-0.062-0.004-0.126-0.006-0.17,0.002
				c-0.042,0.006-0.081,0.009-0.118,0.009c-0.412,0-0.49-0.371-0.517-0.494c-0.159-0.758-0.34-1.526-0.515-2.27l-0.05-0.202
				c-0.036-0.159-0.054-0.37,0.141-0.587c0.179-0.197,0.354-0.403,0.526-0.603c0.165-0.192,0.335-0.391,0.508-0.583
				c0.032-0.036,0.055-0.069,0.07-0.105l0.015-0.042l0.033-0.034c0.056-0.059,0.111-0.121,0.158-0.186l0.061-0.078l0.051-0.006
				c0.004-0.005,0.009-0.01,0.012-0.013c-0.005-2.367-0.006-4.732,0-7.099c0-0.193-0.059-0.225-0.234-0.224
				c-1.059,0.008-2.371,0.001-3.429,0.001c-0.063,0.104-0.038,0.222-0.038,0.334c-0.001,3.184,0,6.368-0.001,9.553
				c0,0.096,0.037,0.203-0.064,0.309c-0.074-0.094-0.141-0.172-0.204-0.251c-0.826-1.086-1.653-2.171-2.478-3.257
				c-1.694-2.227-3.386-4.456-5.08-6.681c-1.004-0.001-2.579-0.002-3.657-0.004v16.367c1.056-0.004,2.607-0.008,3.591,0.004
				c0.229,0.003,0.294-0.052,0.292-0.287c-0.009-2.17-0.005-4.341-0.004-6.51c0-1.218-0.008-2.433-0.006-3.647
				c-0.021-0.028-0.037-0.063,0.012-0.072c0.017-0.003,0.041,0.038,0.062,0.061c0.044,0.057,0.085,0.113,0.125,0.168
				c0.049,0.052,7.387,10.264,7.527,10.262c0.867-0.004,2.495-0.004,3.36-0.001c0.151,0.001,0.221-0.035,0.218-0.202
				c-0.007-1.21-0.008-2.419-0.012-3.628l-0.07,0.005L273.325,28.026L273.325,28.026z"/>
			<path fill="#F2F5F7" d="M288.438,24.588c-0.285,0.007-0.585,0.008-0.945,0.008c-0.291,0-0.581-0.001-0.874-0.002l-0.146-0.001
				c-0.045,0-0.083,0.001-0.116,0.002c-0.029,0-0.053,0.001-0.076,0.001c-0.069,0-0.198,0-0.291-0.096
				c-0.101-0.101-0.099-0.224-0.097-0.396v-0.102v-0.963c-0.001-3.326-0.002-6.764,0.005-10.146c0-0.024,0-0.042-0.002-0.056
				c-0.01,0-0.024,0-0.042,0h-0.013c-0.897,0.01-1.84,0.011-3.026,0l0,0c-0.129,0-0.188,0.027-0.27,0.122
				c-2.922,3.392-5.807,6.732-8.749,10.137c-0.001,0.005-0.007,0.011-0.01,0.015c-0.025,0.036-0.074,0.108-0.163,0.151
				c-0.04,0.049-0.08,0.095-0.122,0.141c-0.033,0.069-0.078,0.136-0.134,0.198c-0.17,0.188-0.339,0.385-0.501,0.574
				c-0.175,0.2-0.354,0.409-0.534,0.61c-0.044,0.049-0.056,0.073-0.032,0.172l0.047,0.201c0.177,0.745,0.359,1.518,0.52,2.281
				c0.017,0.091,0.035,0.119,0.039,0.126c0.004,0,0.012,0.001,0.024,0.001c0.017,0,0.031-0.002,0.052-0.003
				c0.074-0.012,0.168-0.011,0.259-0.007c0.027,0.002,0.056,0.002,0.083,0.002l0.159-0.007l1.613,0.001
				c2.245,0.001,4.492,0.004,6.738-0.001c0.121,0,0.27,0.014,0.376,0.121c0.107,0.109,0.122,0.256,0.119,0.372
				c-0.004,0.599-0.004,1.206-0.004,1.793c0,0.593,0,1.204-0.006,1.806c0,0.026,0.001,0.048,0.002,0.062
				c0.01,0,0.02,0.001,0.034,0.001l0.012-0.001c0.546-0.007,1.124-0.01,1.714-0.01c0.56,0,1.134,0.003,1.756,0.01h0.013
				c0.02,0,0.035-0.001,0.046-0.003c0.002-0.011,0.002-0.029,0.002-0.051c-0.007-0.632-0.006-1.272-0.005-1.894
				c0-0.56,0-1.136-0.004-1.704c0-0.118,0.01-0.27,0.122-0.379c0.108-0.109,0.256-0.123,0.369-0.123h0.027
				c0.293,0.005,0.586,0.007,0.81,0.007l0.691-0.002c0.188,0,0.376,0.002,0.567,0.002c-0.007-0.811-0.011-1.873,0-2.952
				c0-0.008,0-0.014,0-0.021c-0.007,0-0.014,0-0.022,0L288.438,24.588L288.438,24.588z M284.117,20.206
				c-0.622,0.164-1.099,0.562-1.562,0.979c-0.109,0.096-0.049,0.194-0.019,0.289c0.215,0.647,0.434,1.294,0.648,1.941
				c0.021,0.063,0.041,0.128,0.06,0.189c-0.076,0.055-0.106-0.01-0.143-0.035c-0.545-0.393-1.165-0.633-1.796-0.851
				c-0.157-0.055-0.223,0.026-0.306,0.119c-0.447,0.503-0.898,1.004-1.408,1.445c-0.156,0.137-0.306,0.284-0.536,0.385
				c0.148-0.473,0.289-0.911,0.428-1.349c0.092-0.294,0.171-0.59,0.275-0.878c0.073-0.195,0.053-0.3-0.15-0.41
				c-0.692-0.371-1.232-0.917-1.688-1.549c-0.033-0.045-0.09-0.083-0.065-0.152c0-0.001-0.001-0.001-0.001-0.001
				c-0.002-0.005-0.005-0.006-0.007-0.01c-0.007-0.002-0.014-0.004-0.021-0.007c0.006-0.001,0.011-0.003,0.015-0.002
				c0.003,0.002,0.004,0.006,0.007,0.009c0.004,0.002,0.007,0.003,0.01,0.004c-0.002,0.002-0.002,0.004-0.002,0.007
				c0.704,0.429,1.447,0.461,2.223,0.241c0.189-0.054,0.291-0.139,0.344-0.333c0.227-0.825,0.47-1.645,0.714-2.487
				c0.104,0.083,0.116,0.19,0.15,0.282c0.199,0.532,0.404,1.063,0.588,1.601c0.065,0.199,0.148,0.22,0.336,0.162
				c0.769-0.238,1.518-0.238,2.213,0.239c0.027,0.018,0.053,0.041,0.114,0.092C284.376,20.155,284.243,20.172,284.117,20.206z"/>
			<path fill="#F2F5F7" d="M296.654,22.203c0-3.133-0.003-6.267,0.003-9.398c0-0.204-0.046-0.266-0.257-0.262
				c-0.831,0.013-1.663,0.005-2.495,0.004c-0.112,0-0.224,0.016-0.334,0.048c-1.699,0.511-3.4,1.02-5.103,1.521
				c-0.165,0.049-0.222,0.094-0.173,0.283c0.269,1.004,0.521,2.014,0.767,3.025c0.05,0.202,0.127,0.216,0.306,0.17
				c0.923-0.235,1.851-0.459,2.775-0.686c0.325-0.08,0.327-0.079,0.327,0.248c0,4.806,0.001,9.612-0.007,14.417
				c0,0.219,0.042,0.299,0.285,0.297c1.207-0.015,2.415-0.014,3.624,0c0.233,0.002,0.286-0.062,0.286-0.292
				C296.65,28.453,296.654,25.327,296.654,22.203z"/>
		</g>
		<g>
			<path fill="#F2F5F7" d="M3.185,17.154c0.422,0,0.855-0.017,1.3-0.051l4.274,9.455l3.728-9.455
				c0.193,0.023,0.407,0.037,0.64,0.044c0.234,0.005,0.466,0.007,0.693,0.007c0.228,0,0.444-0.002,0.65-0.007
				c0.205-0.008,0.421-0.021,0.649-0.044c0,0.126-0.006,0.248-0.017,0.368c-0.012,0.119-0.035,0.242-0.068,0.366
				c-0.205,0-0.388,0.027-0.547,0.078c-0.161,0.051-0.291,0.142-0.394,0.273c-0.102,0.131-0.174,0.308-0.213,0.53
				c-0.041,0.221-0.043,0.504-0.009,0.847l0.617,6.275c0.045,0.422,0.096,0.77,0.153,1.042c0.057,0.273,0.135,0.49,0.23,0.65
				c0.097,0.159,0.214,0.275,0.351,0.35c0.137,0.075,0.308,0.117,0.514,0.127c0.034,0.127,0.057,0.255,0.068,0.387
				c0.012,0.131,0.017,0.253,0.017,0.366c-0.137-0.011-0.291-0.021-0.462-0.025c-0.171-0.006-0.348-0.012-0.529-0.017
				c-0.184-0.007-0.372-0.01-0.566-0.01h-0.496c-0.308,0-0.658,0.003-1.051,0.01c-0.394,0.005-0.738,0.02-1.034,0.042
				c0-0.104,0.009-0.222,0.026-0.359c0.017-0.136,0.042-0.262,0.076-0.375c0.273-0.023,0.49-0.068,0.65-0.137
				c0.159-0.068,0.273-0.176,0.342-0.317c0.068-0.143,0.102-0.337,0.102-0.581c0-0.246-0.017-0.556-0.051-0.932l-0.616-5.864
				l-3.539,8.549c-0.193,0.08-0.428,0.119-0.701,0.119l-3.984-8.651L3.44,25.702c-0.046,0.458-0.06,0.831-0.042,1.119
				c0.016,0.292,0.067,0.522,0.154,0.694c0.084,0.171,0.209,0.292,0.375,0.367c0.165,0.074,0.373,0.122,0.624,0.146
				c0.034,0.125,0.057,0.258,0.069,0.402c0.011,0.143,0.017,0.253,0.017,0.332c-0.273-0.022-0.584-0.037-0.932-0.042
				c-0.348-0.007-0.647-0.01-0.897-0.01c-0.251,0-0.542,0.003-0.872,0.01c-0.331,0.005-0.611,0.02-0.838,0.042
				c0-0.079,0.005-0.189,0.017-0.332c0.011-0.145,0.034-0.277,0.068-0.402c0.228-0.023,0.419-0.068,0.572-0.137
				c0.154-0.068,0.282-0.19,0.384-0.359c0.102-0.17,0.188-0.416,0.256-0.736c0.069-0.319,0.126-0.735,0.171-1.247l0.547-6.087
				c0.057-0.615,0-1.04-0.17-1.274c-0.171-0.232-0.497-0.35-0.976-0.35c-0.034-0.115-0.057-0.239-0.068-0.376
				c-0.011-0.136-0.018-0.257-0.018-0.359c0.171,0.024,0.375,0.037,0.616,0.044C2.74,17.152,2.967,17.154,3.185,17.154z"/>
			<path fill="#F2F5F7" d="M23.565,17.12c0.193-0.045,0.416-0.068,0.665-0.068l4.071,9.334c0.137,0.321,0.258,0.583,0.367,0.787
				c0.107,0.205,0.211,0.368,0.308,0.487s0.193,0.206,0.291,0.257c0.096,0.051,0.213,0.088,0.35,0.112
				c0.045,0.147,0.074,0.273,0.086,0.374c0.011,0.104,0.017,0.223,0.017,0.36c-0.092,0-0.217-0.003-0.376-0.009
				c-0.159-0.007-0.337-0.014-0.531-0.026l-0.564-0.017h-0.479c-0.137,0-0.298,0.002-0.487,0.009
				c-0.188,0.006-0.375,0.011-0.555,0.017c-0.182,0.007-0.356,0.011-0.522,0.018c-0.166,0.006-0.288,0.009-0.367,0.009
				c0-0.138,0.005-0.269,0.017-0.394c0.011-0.126,0.045-0.239,0.103-0.341c0.239-0.024,0.424-0.058,0.555-0.104
				c0.131-0.046,0.219-0.118,0.265-0.215c0.045-0.096,0.052-0.224,0.018-0.384c-0.035-0.16-0.108-0.37-0.222-0.633l-0.753-1.744
				c-0.741,0-1.521,0.006-2.343,0.018c-0.786,0.011-1.516,0.027-2.189,0.051l-0.444,1.179c-0.261,0.673-0.341,1.138-0.239,1.395
				c0.102,0.256,0.387,0.403,0.855,0.438c0.079,0.192,0.118,0.438,0.118,0.734c-0.192-0.022-0.44-0.037-0.742-0.043
				c-0.303-0.007-0.596-0.009-0.881-0.009s-0.553,0.007-0.804,0.017c-0.25,0.012-0.455,0.023-0.616,0.034
				c0-0.113,0.01-0.235,0.026-0.366c0.018-0.132,0.048-0.25,0.093-0.352c0.149-0.035,0.28-0.084,0.394-0.153
				c0.115-0.068,0.224-0.171,0.325-0.309c0.103-0.137,0.202-0.316,0.299-0.538c0.097-0.224,0.215-0.504,0.352-0.848L23.565,17.12z
				 M21.615,24.181h3.882l-1.299-3.042c-0.081-0.172-0.15-0.331-0.214-0.479c-0.063-0.146-0.126-0.299-0.187-0.452
				c-0.063-0.155-0.129-0.311-0.197-0.471c-0.046-0.135-0.103-0.284-0.171-0.444c-0.115,0.376-0.222,0.702-0.325,0.975
				c-0.104,0.296-0.206,0.581-0.307,0.854L21.615,24.181z"/>
			<path fill="#F2F5F7" d="M34.884,17.154c0.479,0,0.955-0.005,1.428-0.017c0.473-0.011,0.949-0.017,1.426-0.017
				c0.65,0,1.208,0.073,1.677,0.222c0.467,0.149,0.853,0.35,1.153,0.607c0.301,0.256,0.527,0.559,0.675,0.905
				c0.149,0.35,0.223,0.727,0.223,1.138c0,0.797-0.273,1.471-0.821,2.016c-0.502,0.503-1.18,0.868-2.035,1.096
				c0.148,0.138,0.285,0.273,0.411,0.41c0.159,0.171,0.313,0.361,0.461,0.572c0.148,0.213,0.303,0.454,0.462,0.727
				c0.159,0.275,0.349,0.61,0.564,1.01c0.4,0.718,0.792,1.26,1.18,1.624c0.388,0.365,0.867,0.558,1.437,0.582
				c0,0.136-0.003,0.261-0.008,0.374c-0.007,0.115-0.026,0.234-0.059,0.36c-0.434,0-0.884,0.007-1.351,0.017
				c-0.468,0.011-0.912,0.04-1.334,0.085c-0.182-0.285-0.405-0.66-0.667-1.13c-0.262-0.465-0.529-0.971-0.803-1.52
				c-0.263-0.525-0.582-1.037-0.958-1.538c-0.297-0.411-0.628-0.805-0.991-1.182c-0.468,0.022-0.884,0.022-1.249,0v3.045
				c0,0.569,0.08,0.955,0.239,1.153c0.159,0.199,0.456,0.311,0.889,0.334c0.035,0.102,0.057,0.219,0.069,0.35
				c0.011,0.132,0.017,0.259,0.017,0.385c-0.365-0.022-0.742-0.037-1.129-0.042c-0.388-0.007-0.69-0.01-0.906-0.01h-0.496
				c-0.183,0-0.368,0.003-0.557,0.01c-0.188,0.005-0.37,0.009-0.546,0.017c-0.177,0.005-0.328,0.013-0.455,0.025
				c0-0.126,0.006-0.251,0.018-0.375c0.011-0.125,0.034-0.246,0.068-0.359c0.455-0.024,0.766-0.136,0.931-0.335
				c0.166-0.198,0.249-0.583,0.249-1.153v-7.214c0-0.57-0.083-0.961-0.249-1.172c-0.166-0.21-0.476-0.317-0.931-0.317
				c-0.034-0.112-0.058-0.227-0.068-0.341c-0.012-0.114-0.018-0.24-0.018-0.376c0.172,0.012,0.458,0.019,0.855,0.026
				C34.086,17.152,34.485,17.154,34.884,17.154z M36.27,17.769c-0.184,0.024-0.371,0.058-0.564,0.103v4.788
				c0.113,0.023,0.221,0.034,0.324,0.034c0.137,0.011,0.28,0.016,0.428,0.016c0.467,0,0.903-0.047,1.309-0.145
				c0.404-0.097,0.758-0.252,1.06-0.461c0.302-0.212,0.538-0.478,0.71-0.795c0.17-0.32,0.255-0.701,0.255-1.146
				c0-0.717-0.213-1.301-0.641-1.752c-0.428-0.45-1.155-0.676-2.18-0.676C36.708,17.735,36.475,17.747,36.27,17.769z"/>
			<path fill="#F2F5F7" d="M50.682,23.668v2.257c0,0.457,0.016,0.815,0.043,1.078c0.029,0.262,0.088,0.461,0.179,0.6
				c0.091,0.135,0.223,0.233,0.394,0.289c0.171,0.058,0.404,0.104,0.701,0.139c0.068,0.204,0.104,0.45,0.104,0.734l-1.129-0.035
				c-0.376-0.01-0.724-0.017-1.042-0.017h-0.615c-0.218,0-0.435,0.002-0.651,0.01c-0.216,0.004-0.418,0.012-0.607,0.017
				c-0.188,0.006-0.339,0.009-0.453,0.009c0-0.125,0.009-0.251,0.026-0.375c0.018-0.127,0.042-0.241,0.077-0.343
				c0.308-0.023,0.551-0.061,0.727-0.111c0.176-0.052,0.312-0.141,0.409-0.265c0.098-0.126,0.161-0.309,0.189-0.548
				c0.028-0.238,0.043-0.56,0.043-0.958v-2.463l-2.855-4.855c-0.114-0.183-0.215-0.336-0.3-0.461
				c-0.085-0.126-0.174-0.229-0.265-0.309c-0.091-0.078-0.19-0.136-0.298-0.169c-0.109-0.034-0.242-0.057-0.402-0.068
				c-0.046-0.126-0.074-0.244-0.085-0.351c-0.012-0.11-0.018-0.226-0.018-0.352c0.239,0.012,0.513,0.02,0.82,0.026
				c0.31,0.005,0.628,0.008,0.958,0.008h1.18c0.217,0,0.423-0.003,0.616-0.008c0.193-0.007,0.358-0.015,0.495-0.026
				c0,0.126-0.005,0.237-0.016,0.334c-0.011,0.097-0.034,0.208-0.069,0.333c-0.443,0.046-0.699,0.16-0.761,0.343
				c-0.062,0.181,0.036,0.494,0.299,0.939c0.342,0.593,0.708,1.237,1.096,1.932c0.33,0.592,0.637,1.173,0.922,1.743
				c0.272-0.536,0.558-1.069,0.855-1.605c0.341-0.639,0.661-1.215,0.957-1.728c0.319-0.559,0.437-0.947,0.351-1.161
				c-0.085-0.218-0.357-0.36-0.812-0.428c-0.034-0.126-0.063-0.244-0.086-0.351c-0.022-0.11-0.034-0.226-0.034-0.352
				c0.205,0.022,0.468,0.034,0.787,0.034h0.889c0.262,0,0.524-0.003,0.786-0.008c0.262-0.007,0.491-0.015,0.684-0.026
				c0,0.228-0.023,0.451-0.068,0.667c-0.16,0.046-0.302,0.105-0.427,0.18c-0.125,0.074-0.256,0.18-0.393,0.317
				c-0.137,0.135-0.281,0.312-0.428,0.529c-0.148,0.217-0.313,0.491-0.496,0.821L50.682,23.668z"/>
			<path fill="#F2F5F7" d="M64.275,19.326c0-0.57-0.083-0.954-0.248-1.153c-0.165-0.2-0.476-0.312-0.932-0.335
				c-0.058-0.158-0.085-0.404-0.085-0.734c0.626,0.034,1.315,0.051,2.068,0.051c0.365,0,0.715-0.002,1.052-0.007
				c0.335-0.008,0.675-0.021,1.016-0.044c0,0.331-0.027,0.575-0.085,0.734c-0.456,0.024-0.767,0.134-0.931,0.335
				c-0.166,0.199-0.248,0.584-0.248,1.153v3.316l3.06-3.214c0.295-0.308,0.509-0.561,0.641-0.761c0.13-0.2,0.194-0.359,0.188-0.478
				c-0.005-0.121-0.062-0.207-0.17-0.255c-0.109-0.053-0.253-0.085-0.437-0.095c-0.033-0.114-0.057-0.233-0.068-0.359
				c-0.011-0.125-0.017-0.25-0.017-0.376c0.194,0.023,0.451,0.037,0.77,0.043c0.319,0.006,0.651,0.009,0.991,0.009
				c0.707,0,1.293-0.018,1.762-0.052c0,0.115-0.006,0.239-0.018,0.376c-0.01,0.137-0.039,0.256-0.085,0.359
				c-0.193,0.011-0.379,0.04-0.555,0.085c-0.176,0.044-0.359,0.122-0.547,0.23s-0.391,0.257-0.607,0.445s-0.461,0.424-0.735,0.709
				l-2.77,2.975c0.387,0.331,0.758,0.735,1.111,1.213c0.434,0.56,0.877,1.136,1.335,1.729c0.273,0.364,0.558,0.715,0.854,1.052
				c0.296,0.335,0.592,0.634,0.889,0.888c0.297,0.258,0.592,0.462,0.89,0.615c0.295,0.155,0.592,0.236,0.889,0.25
				c0,0.09-0.007,0.198-0.017,0.323c-0.012,0.127-0.035,0.247-0.069,0.36c-0.433,0-0.889,0.006-1.368,0.016
				c-0.479,0.012-0.929,0.041-1.351,0.087c-0.206-0.332-0.493-0.759-0.863-1.283c-0.371-0.522-0.781-1.069-1.231-1.641
				c-0.45-0.57-0.921-1.117-1.411-1.644c-0.376-0.421-0.729-0.784-1.059-1.093v3.386c0,0.571,0.082,0.955,0.248,1.153
				c0.164,0.2,0.475,0.311,0.931,0.335c0.058,0.158,0.085,0.403,0.085,0.734c-0.683-0.035-1.372-0.052-2.068-0.052
				c-0.331,0-0.684,0.002-1.059,0.01c-0.377,0.004-0.713,0.019-1.009,0.042c0-0.33,0.027-0.575,0.086-0.734
				c0.455-0.023,0.766-0.135,0.931-0.334c0.166-0.199,0.248-0.583,0.248-1.154V19.326L64.275,19.326z"/>
			<path fill="#F2F5F7" d="M80.792,17.12c0.193-0.045,0.416-0.068,0.665-0.068l4.071,9.334c0.137,0.321,0.258,0.583,0.367,0.787
				c0.108,0.205,0.211,0.368,0.309,0.487c0.096,0.119,0.192,0.206,0.29,0.257c0.097,0.051,0.214,0.088,0.351,0.112
				c0.046,0.147,0.074,0.273,0.085,0.374c0.012,0.104,0.018,0.223,0.018,0.36c-0.091,0-0.216-0.003-0.376-0.009
				c-0.159-0.007-0.336-0.014-0.53-0.026l-0.563-0.017h-0.479c-0.138,0-0.299,0.002-0.488,0.009
				c-0.188,0.006-0.374,0.011-0.555,0.017c-0.183,0.007-0.356,0.011-0.522,0.018c-0.165,0.006-0.288,0.009-0.367,0.009
				c0-0.138,0.006-0.269,0.018-0.394c0.011-0.126,0.045-0.239,0.103-0.341c0.239-0.024,0.424-0.058,0.554-0.104
				c0.132-0.046,0.22-0.118,0.266-0.215c0.046-0.096,0.051-0.224,0.017-0.384c-0.034-0.16-0.108-0.37-0.222-0.633l-0.752-1.744
				c-0.741,0-1.522,0.006-2.342,0.018c-0.788,0.011-1.517,0.027-2.188,0.051l-0.445,1.179c-0.263,0.673-0.342,1.138-0.239,1.395
				c0.103,0.256,0.387,0.403,0.854,0.438c0.081,0.192,0.121,0.438,0.121,0.734c-0.195-0.022-0.442-0.037-0.744-0.043
				c-0.302-0.007-0.597-0.009-0.881-0.009c-0.284,0-0.552,0.007-0.803,0.017c-0.252,0.012-0.456,0.023-0.616,0.034
				c0-0.113,0.008-0.235,0.025-0.366c0.017-0.132,0.048-0.25,0.094-0.352c0.147-0.035,0.279-0.084,0.393-0.153
				c0.114-0.068,0.222-0.171,0.325-0.309c0.103-0.137,0.202-0.316,0.3-0.538c0.096-0.224,0.213-0.504,0.35-0.848L80.792,17.12z
				 M78.842,24.181h3.882l-1.301-3.042c-0.079-0.172-0.15-0.331-0.213-0.479c-0.063-0.146-0.126-0.299-0.188-0.452
				c-0.062-0.155-0.128-0.311-0.197-0.471c-0.046-0.135-0.102-0.284-0.171-0.444c-0.115,0.376-0.222,0.702-0.325,0.975
				c-0.104,0.296-0.206,0.581-0.308,0.854L78.842,24.181z"/>
			<path fill="#F2F5F7" d="M92.145,17.822h-0.873c-0.444,0-0.794,0.05-1.05,0.154c-0.257,0.102-0.459,0.245-0.607,0.428
				c-0.148,0.182-0.256,0.393-0.325,0.633c-0.068,0.238-0.131,0.5-0.188,0.786c-0.125,0-0.263-0.01-0.41-0.034
				c-0.149-0.022-0.274-0.063-0.376-0.12c0.091-0.398,0.16-0.826,0.206-1.282c0.045-0.456,0.068-0.884,0.068-1.283
				c0.479,0.023,1.108,0.036,1.889,0.044c0.781,0.005,1.604,0.007,2.471,0.007h1.283c0.421,0,0.824-0.002,1.206-0.007
				c0.381-0.008,0.735-0.013,1.059-0.019c0.325-0.005,0.608-0.013,0.847-0.025c0,0.776,0.034,1.63,0.103,2.565
				c-0.125,0.057-0.259,0.096-0.403,0.12c-0.141,0.022-0.282,0.034-0.418,0.034c-0.022-0.615-0.191-1.103-0.504-1.461
				c-0.313-0.36-0.829-0.539-1.547-0.539h-0.821v8.719c0,0.284,0.017,0.521,0.051,0.71c0.035,0.188,0.1,0.337,0.197,0.443
				c0.097,0.109,0.233,0.188,0.411,0.24c0.176,0.05,0.401,0.081,0.676,0.095c0.057,0.158,0.085,0.403,0.085,0.734
				c-0.366-0.022-0.739-0.037-1.12-0.043c-0.383-0.007-0.756-0.009-1.12-0.009c-0.366,0-0.75,0.002-1.155,0.009
				c-0.404,0.006-0.766,0.021-1.084,0.043c0-0.33,0.028-0.576,0.085-0.734c0.273-0.014,0.498-0.045,0.675-0.095
				c0.177-0.052,0.316-0.131,0.418-0.24c0.103-0.106,0.173-0.256,0.215-0.443c0.039-0.189,0.058-0.426,0.058-0.71V17.822
				L92.145,17.822z"/>
			<path fill="#F2F5F7" d="M107.908,17.103c0.012,0.193,0.032,0.408,0.061,0.642c0.027,0.233,0.057,0.473,0.085,0.717
				c0.028,0.246,0.059,0.485,0.093,0.718c0.035,0.233,0.075,0.442,0.12,0.624c-0.09,0.08-0.202,0.134-0.333,0.162
				c-0.13,0.029-0.276,0.043-0.434,0.043c-0.024-0.262-0.077-0.523-0.164-0.786c-0.085-0.263-0.233-0.496-0.443-0.701
				c-0.211-0.204-0.495-0.371-0.847-0.496c-0.354-0.125-0.804-0.188-1.351-0.188h-1.231v4.687h0.718c0.353,0,0.65-0.021,0.89-0.062
				c0.239-0.039,0.433-0.111,0.58-0.214c0.149-0.102,0.257-0.245,0.324-0.428c0.069-0.182,0.105-0.409,0.105-0.683
				c0.147-0.047,0.281-0.076,0.401-0.096c0.12-0.015,0.259-0.025,0.418-0.025c-0.023,0.297-0.034,0.609-0.034,0.94v1.916
				c0,0.364,0.011,0.694,0.034,0.992c-0.159,0-0.299-0.007-0.418-0.019c-0.12-0.01-0.243-0.034-0.368-0.068
				c-0.022-0.297-0.071-0.541-0.145-0.735c-0.075-0.193-0.186-0.35-0.333-0.47c-0.149-0.12-0.34-0.201-0.573-0.248
				c-0.233-0.046-0.529-0.068-0.882-0.068h-0.718v3.094c0,0.321,0.021,0.583,0.06,0.787c0.04,0.206,0.118,0.368,0.231,0.487
				c0.114,0.12,0.27,0.202,0.469,0.249c0.2,0.046,0.458,0.066,0.779,0.066h0.103c0.523,0,0.951-0.044,1.282-0.136
				c0.331-0.091,0.601-0.229,0.813-0.409c0.21-0.182,0.381-0.407,0.513-0.675c0.13-0.269,0.259-0.58,0.384-0.934
				c0.17,0.058,0.314,0.113,0.427,0.171c0.114,0.057,0.222,0.137,0.326,0.24c-0.126,0.399-0.231,0.823-0.317,1.273
				c-0.085,0.451-0.157,0.875-0.214,1.273c-0.172,0-0.378-0.002-0.624-0.009c-0.246-0.006-0.515-0.011-0.812-0.017
				c-0.297-0.007-0.604-0.009-0.924-0.009h-2.069c-0.422,0-0.841,0.002-1.256,0.009c-0.417,0.006-0.809,0.011-1.181,0.017
				c-0.37,0.007-0.663,0.015-0.879,0.026c0-0.33,0.029-0.576,0.086-0.734c0.227-0.014,0.419-0.045,0.572-0.095
				c0.154-0.052,0.276-0.142,0.367-0.267c0.092-0.124,0.158-0.292,0.197-0.505c0.04-0.209,0.059-0.479,0.059-0.812v-7.025
				c0-0.57-0.082-0.954-0.247-1.153c-0.166-0.2-0.476-0.312-0.932-0.335c-0.035-0.091-0.058-0.203-0.069-0.333
				c-0.011-0.131-0.016-0.266-0.016-0.402c0.17,0.012,0.387,0.02,0.648,0.025c0.263,0.006,0.534,0.011,0.812,0.019
				c0.279,0.005,0.544,0.007,0.796,0.007h0.615c1.173,0,2.138-0.005,2.889-0.017C107.106,17.126,107.623,17.115,107.908,17.103z"/>
			<path fill="#F2F5F7" d="M122.733,17.001c0.717,0,1.37,0.073,1.958,0.221c0.586,0.149,1.198,0.371,1.837,0.667
				c-0.093,0.399-0.146,0.821-0.162,1.264c-0.018,0.446-0.026,0.907-0.026,1.385c-0.148,0.058-0.291,0.097-0.429,0.12
				c-0.136,0.022-0.295,0.034-0.477,0.034c-0.023-0.604-0.098-1.1-0.223-1.487c-0.125-0.387-0.299-0.693-0.521-0.916
				c-0.224-0.222-0.488-0.375-0.795-0.461c-0.308-0.084-0.65-0.128-1.026-0.128c-0.719,0-1.335,0.131-1.847,0.394
				c-0.513,0.261-0.932,0.614-1.257,1.051c-0.324,0.439-0.563,0.94-0.717,1.504c-0.154,0.565-0.231,1.145-0.231,1.736
				c0,0.765,0.101,1.476,0.3,2.136c0.2,0.663,0.484,1.239,0.854,1.728c0.371,0.491,0.827,0.875,1.369,1.155
				c0.541,0.279,1.154,0.419,1.836,0.419c0.548,0,1.107-0.091,1.676-0.273c0.569-0.184,1.095-0.427,1.574-0.735
				c0.068,0.058,0.134,0.14,0.196,0.247c0.063,0.108,0.1,0.203,0.111,0.283c-0.342,0.263-0.675,0.487-1.001,0.674
				c-0.323,0.188-0.658,0.347-0.999,0.471c-0.342,0.125-0.699,0.221-1.068,0.283c-0.372,0.062-0.774,0.093-1.207,0.093
				c-0.797,0-1.53-0.144-2.197-0.435c-0.667-0.291-1.24-0.701-1.717-1.232c-0.479-0.528-0.853-1.164-1.121-1.904
				c-0.268-0.743-0.403-1.558-0.403-2.445c0-0.981,0.164-1.836,0.488-2.565c0.325-0.729,0.752-1.339,1.283-1.829
				c0.53-0.491,1.136-0.855,1.821-1.094C121.296,17.12,122.002,17.001,122.733,17.001z"/>
			<path fill="#F2F5F7" d="M134.753,17.12c0.193-0.045,0.416-0.068,0.665-0.068l4.07,9.334c0.136,0.321,0.259,0.583,0.367,0.787
				c0.108,0.205,0.21,0.368,0.308,0.487c0.097,0.119,0.194,0.206,0.29,0.257c0.097,0.051,0.213,0.088,0.35,0.112
				c0.048,0.147,0.075,0.273,0.087,0.374c0.01,0.104,0.018,0.223,0.018,0.36c-0.092,0-0.217-0.003-0.376-0.009
				c-0.16-0.007-0.336-0.014-0.531-0.026l-0.564-0.017h-0.479c-0.137,0-0.299,0.002-0.487,0.009
				c-0.188,0.006-0.374,0.011-0.556,0.017c-0.182,0.007-0.356,0.011-0.522,0.018c-0.165,0.006-0.288,0.009-0.366,0.009
				c0-0.138,0.004-0.269,0.017-0.394c0.012-0.126,0.046-0.239,0.102-0.341c0.24-0.024,0.425-0.058,0.556-0.104
				c0.13-0.046,0.219-0.118,0.266-0.215c0.045-0.096,0.051-0.224,0.016-0.384c-0.035-0.16-0.108-0.37-0.222-0.633l-0.752-1.744
				c-0.742,0-1.522,0.006-2.343,0.018c-0.786,0.011-1.516,0.027-2.188,0.051l-0.444,1.179c-0.264,0.673-0.342,1.138-0.24,1.395
				c0.103,0.256,0.389,0.403,0.855,0.438c0.081,0.192,0.12,0.438,0.12,0.734c-0.194-0.022-0.441-0.037-0.744-0.043
				c-0.301-0.007-0.596-0.009-0.879-0.009c-0.286,0-0.553,0.007-0.804,0.017c-0.25,0.012-0.457,0.023-0.615,0.034
				c0-0.113,0.007-0.235,0.024-0.366c0.018-0.132,0.049-0.25,0.095-0.352c0.148-0.035,0.278-0.084,0.394-0.153
				c0.113-0.068,0.222-0.171,0.324-0.309c0.103-0.137,0.203-0.316,0.301-0.538c0.096-0.224,0.212-0.504,0.35-0.848L134.753,17.12z
				 M132.803,24.181h3.881l-1.299-3.042c-0.08-0.172-0.15-0.331-0.214-0.479c-0.063-0.146-0.126-0.299-0.188-0.452
				c-0.064-0.155-0.129-0.311-0.197-0.471c-0.047-0.135-0.104-0.284-0.172-0.444c-0.114,0.376-0.223,0.702-0.325,0.975
				c-0.103,0.296-0.205,0.581-0.307,0.854L132.803,24.181z"/>
			<path fill="#F2F5F7" d="M146.07,17.154c0.479,0,0.954-0.005,1.428-0.017c0.472-0.011,0.949-0.017,1.428-0.017
				c0.65,0,1.209,0.073,1.677,0.222c0.467,0.149,0.852,0.35,1.153,0.607c0.302,0.256,0.525,0.559,0.675,0.905
				c0.148,0.35,0.222,0.727,0.222,1.138c0,0.797-0.272,1.471-0.82,2.016c-0.501,0.503-1.18,0.868-2.034,1.096
				c0.148,0.138,0.284,0.273,0.411,0.41c0.158,0.171,0.312,0.361,0.461,0.572c0.147,0.213,0.303,0.454,0.461,0.727
				c0.16,0.275,0.35,0.61,0.564,1.01c0.4,0.718,0.792,1.26,1.181,1.624c0.386,0.365,0.864,0.558,1.436,0.582
				c0,0.136-0.003,0.261-0.008,0.374c-0.008,0.115-0.026,0.234-0.061,0.36c-0.435,0-0.885,0.007-1.352,0.017
				c-0.468,0.011-0.911,0.04-1.333,0.085c-0.182-0.285-0.405-0.66-0.668-1.13c-0.262-0.465-0.528-0.971-0.803-1.52
				c-0.262-0.525-0.582-1.037-0.957-1.538c-0.296-0.411-0.626-0.805-0.992-1.182c-0.468,0.022-0.884,0.022-1.249,0v3.045
				c0,0.569,0.081,0.955,0.239,1.153c0.159,0.199,0.457,0.311,0.891,0.334c0.034,0.102,0.056,0.219,0.068,0.35
				c0.011,0.132,0.016,0.259,0.016,0.385c-0.365-0.022-0.742-0.037-1.127-0.042c-0.388-0.007-0.689-0.01-0.907-0.01h-0.495
				c-0.183,0-0.369,0.003-0.556,0.01c-0.189,0.005-0.372,0.009-0.548,0.017c-0.177,0.005-0.327,0.013-0.453,0.025
				c0-0.126,0.006-0.251,0.019-0.375c0.009-0.125,0.032-0.246,0.067-0.359c0.457-0.024,0.767-0.136,0.931-0.335
				c0.167-0.198,0.248-0.583,0.248-1.153v-7.214c0-0.57-0.081-0.961-0.248-1.172c-0.164-0.21-0.475-0.317-0.931-0.317
				c-0.035-0.112-0.058-0.227-0.067-0.341c-0.012-0.114-0.019-0.24-0.019-0.376c0.171,0.012,0.457,0.019,0.855,0.026
				C145.273,17.152,145.671,17.154,146.07,17.154z M147.456,17.769c-0.183,0.024-0.371,0.058-0.565,0.103v4.788
				c0.115,0.023,0.223,0.034,0.326,0.034c0.136,0.011,0.279,0.016,0.427,0.016c0.468,0,0.904-0.047,1.309-0.145
				c0.403-0.097,0.758-0.252,1.059-0.461c0.304-0.212,0.539-0.478,0.711-0.795c0.17-0.32,0.257-0.701,0.257-1.146
				c0-0.717-0.216-1.301-0.641-1.752c-0.429-0.45-1.155-0.676-2.182-0.676C147.894,17.735,147.662,17.747,147.456,17.769z"/>
			<path fill="#F2F5F7" d="M161.87,23.668v2.257c0,0.457,0.014,0.815,0.042,1.078c0.029,0.262,0.087,0.461,0.18,0.6
				c0.091,0.135,0.222,0.233,0.394,0.289c0.171,0.058,0.403,0.104,0.7,0.139c0.068,0.204,0.103,0.45,0.103,0.734l-1.128-0.035
				c-0.376-0.01-0.725-0.017-1.043-0.017h-0.615c-0.216,0-0.433,0.002-0.65,0.01c-0.215,0.004-0.418,0.012-0.606,0.017
				c-0.187,0.006-0.34,0.009-0.452,0.009c0-0.125,0.009-0.251,0.023-0.375c0.019-0.127,0.043-0.241,0.078-0.343
				c0.309-0.023,0.551-0.061,0.727-0.111c0.177-0.052,0.313-0.141,0.41-0.265c0.098-0.126,0.16-0.309,0.189-0.548
				c0.026-0.238,0.042-0.56,0.042-0.958v-2.463l-2.855-4.855c-0.113-0.183-0.214-0.336-0.3-0.461
				c-0.084-0.126-0.174-0.229-0.264-0.309c-0.092-0.078-0.192-0.136-0.301-0.169c-0.107-0.034-0.241-0.057-0.401-0.068
				c-0.045-0.126-0.073-0.244-0.087-0.351c-0.009-0.11-0.016-0.226-0.016-0.352c0.239,0.012,0.514,0.02,0.819,0.026
				c0.31,0.005,0.63,0.008,0.958,0.008h1.181c0.217,0,0.423-0.003,0.615-0.008c0.194-0.007,0.359-0.015,0.497-0.026
				c0,0.126-0.006,0.237-0.019,0.334c-0.011,0.097-0.034,0.208-0.067,0.333c-0.444,0.046-0.699,0.16-0.76,0.343
				c-0.063,0.181,0.035,0.494,0.299,0.939c0.342,0.593,0.705,1.237,1.094,1.932c0.331,0.592,0.638,1.173,0.924,1.743
				c0.272-0.536,0.56-1.069,0.854-1.605c0.341-0.639,0.66-1.215,0.957-1.728c0.318-0.559,0.437-0.947,0.351-1.161
				c-0.085-0.218-0.356-0.36-0.811-0.428c-0.035-0.126-0.065-0.244-0.087-0.351c-0.023-0.11-0.035-0.226-0.035-0.352
				c0.205,0.022,0.468,0.034,0.786,0.034h0.891c0.262,0,0.524-0.003,0.786-0.008c0.262-0.007,0.492-0.015,0.686-0.026
				c0,0.228-0.023,0.451-0.068,0.667c-0.16,0.046-0.302,0.105-0.428,0.18c-0.125,0.074-0.257,0.18-0.393,0.317
				c-0.137,0.135-0.28,0.312-0.428,0.529c-0.147,0.217-0.314,0.491-0.494,0.821L161.87,23.668z"/>
		</g>
		<rect x="192.212" y="7.018" fill="#F2F5F7" width="1.277" height="28.801"/>
	</g>
	<g>
	</g>
	<g>
	</g>
	<g>
	</g>
	<g>
	</g>
	<g>
	</g>
	<g>
	</g>
</g>
<g>
</g>
<g>
</g>
<g>
</g>
<g>
</g>
<g>
</g>
<g>
</g>
</svg>
