<?xml version="1.0" encoding="utf-8"?>
<!-- Generator: Adobe Illustrator 16.2.1, SVG Export Plug-In . SVG Version: 6.00 Build 0)  -->
<!DOCTYPE svg PUBLIC "-//W3C//DTD SVG 1.1//EN" "http://www.w3.org/Graphics/SVG/1.1/DTD/svg11.dtd">
<svg version="1.1" id="Layer_1" xmlns="http://www.w3.org/2000/svg" xmlns:xlink="http://www.w3.org/1999/xlink" x="0px" y="0px"
	 width="35.549px" height="35.549px" viewBox="137.543 97.899 35.549 35.549" enable-background="new 137.543 97.899 35.549 35.549"
	 xml:space="preserve">
<path id="Blue_1_" fill="#3C5A9A" d="M171.13,97.899h-31.625c-1.084,0-1.962,0.878-1.962,1.962v31.625
	c0,1.083,0.878,1.962,1.962,1.962h17.026v-13.766h-4.634v-5.365h4.634v-3.957c0-4.592,2.804-7.092,6.899-7.092
	c1.962,0,3.648,0.146,4.141,0.211v4.798l-2.842,0.001c-2.228,0-2.659,1.058-2.659,2.612v3.425h5.313l-0.692,5.365h-4.62v13.766
	h9.059c1.083,0,1.962-0.878,1.962-1.962V99.861C173.092,98.778,172.213,97.899,171.13,97.899z"/>
</svg>
