<?xml version="1.0" encoding="utf-8"?>
<!-- Generator: Adobe Illustrator 16.2.1, SVG Export Plug-In . SVG Version: 6.00 Build 0)  -->
<!DOCTYPE svg PUBLIC "-//W3C//DTD SVG 1.1//EN" "http://www.w3.org/Graphics/SVG/1.1/DTD/svg11.dtd">
<svg version="1.1" id="Layer_1" xmlns="http://www.w3.org/2000/svg" xmlns:xlink="http://www.w3.org/1999/xlink" x="0px" y="0px"
	 width="35.552px" height="35.549px" viewBox="9.226 9.228 35.552 35.549" enable-background="new 9.226 9.228 35.552 35.549"
	 xml:space="preserve">
<path fill="#007BB6" d="M42.144,9.228H11.85c-1.448,0-2.624,1.148-2.624,2.562v30.423c0,1.415,1.176,2.564,2.624,2.564h30.294
	c1.449,0,2.634-1.149,2.634-2.564V11.789C44.778,10.375,43.593,9.228,42.144,9.228z M19.771,39.52h-5.275V22.555h5.275V39.52z
	 M17.133,20.237c-1.69,0-3.057-1.37-3.057-3.059c0-1.686,1.366-3.057,3.057-3.057c1.687,0,3.056,1.371,3.056,3.057
	C20.189,18.866,18.82,20.237,17.133,20.237z M39.518,39.52h-5.267v-8.249c0-1.969-0.039-4.499-2.741-4.499
	c-2.743,0-3.163,2.144-3.163,4.356v8.392h-5.27V22.555h5.058v2.318h0.072c0.704-1.333,2.425-2.741,4.988-2.741
	c5.336,0,6.322,3.513,6.322,8.083V39.52z"/>
</svg>
