<?xml version="1.0" encoding="utf-8"?>
<!-- Generator: Adobe Illustrator 16.2.1, SVG Export Plug-In . SVG Version: 6.00 Build 0)  -->
<!DOCTYPE svg PUBLIC "-//W3C//DTD SVG 1.1//EN" "http://www.w3.org/Graphics/SVG/1.1/DTD/svg11.dtd">
<svg version="1.1" id="Layer_1" xmlns="http://www.w3.org/2000/svg" xmlns:xlink="http://www.w3.org/1999/xlink" x="0px" y="0px"
	 width="43.743px" height="35.549px" viewBox="114.823 93.315 43.743 35.549" enable-background="new 114.823 93.315 43.743 35.549"
	 xml:space="preserve">
<path fill="#5FA9DD" d="M158.566,97.523c-1.609,0.714-3.339,1.196-5.154,1.413c1.853-1.111,3.276-2.87,3.945-4.965
	c-1.733,1.028-3.654,1.775-5.698,2.178c-1.637-1.744-3.97-2.834-6.551-2.834c-4.956,0-8.975,4.018-8.975,8.974
	c0,0.704,0.08,1.389,0.232,2.045c-7.458-0.375-14.071-3.947-18.497-9.376c-0.772,1.325-1.215,2.867-1.215,4.512
	c0,3.113,1.584,5.86,3.992,7.47c-1.471-0.047-2.855-0.45-4.065-1.123c0,0.038-0.001,0.075-0.001,0.113
	c0,4.348,3.094,7.976,7.199,8.8c-0.753,0.205-1.546,0.314-2.365,0.314c-0.578,0-1.14-0.057-1.688-0.161
	c1.143,3.565,4.457,6.16,8.384,6.233c-3.072,2.406-6.941,3.841-11.146,3.841c-0.725,0-1.439-0.042-2.141-0.125
	c3.972,2.546,8.689,4.032,13.757,4.032c16.507,0,25.534-13.675,25.534-25.534c0-0.389-0.009-0.776-0.026-1.161
	C155.842,100.903,157.363,99.323,158.566,97.523z"/>
</svg>
